<svg width="102" height="102" viewBox="0 0 102 102" fill="none" xmlns="http://www.w3.org/2000/svg">
<g clip-path="url(#clip0)">
<path d="M92.25 101.09H8.84C3.96 101.09 0 97.13 0 92.25V8.84C0 3.96 3.96 0 8.84 0H92.25C97.13 0 101.09 3.96 101.09 8.84V92.25C101.09 97.13 97.13 101.09 92.25 101.09Z" fill="#0283E3"/>
<path d="M21 40.2045L27.1134 78.5326C27.9486 83.4879 32.4263 86.9781 37.4956 86.6226L72.4938 84.8667L76.2407 94.2064C77.1107 95.4883 79.106 95.1543 79.5468 93.657L82.4817 83.6602L88.5022 82.8523C91.6459 82.4322 94.024 79.7822 94.082 76.6474L94.9984 28.3119C95.1144 21.9454 88.8734 17.4533 82.7717 19.5001L21 40.2045Z" fill="#0A298F"/>
<path d="M7.86045 27.45L15.3205 76.25C15.7305 78.93 18.0605 80.84 20.6805 80.63L24.6905 80.31L25.6105 91.21C25.7705 93.14 28.0505 93.98 29.3605 92.6L40.3205 81L73.9705 79.04C79.3905 78.72 83.6805 74.17 83.8405 68.56L85.1905 21.52C85.3805 14.85 79.7305 9.61004 73.3405 10.53L13.8505 19.1C9.95046 19.65 7.25045 23.42 7.86045 27.45Z" fill="#FFB95B"/>
<path d="M39.4895 66.66C39.0495 66.66 38.6095 66.64 38.1495 66.61C37.6995 66.57 37.2195 66.54 36.7095 66.5L35.2495 56.28C35.0495 54.45 34.7395 53.05 34.3195 52.07C33.8995 51.09 33.3995 50.39 32.8295 49.99C32.2595 49.59 31.6395 49.38 30.9595 49.38H29.3995V65.7C29.3995 65.98 29.3495 66.17 29.2495 66.28C29.1495 66.39 28.7995 66.46 28.2195 66.49C27.6295 66.53 26.6495 66.54 25.2695 66.54V30.54C25.2695 30.26 25.3295 30.07 25.4495 29.96C25.5695 29.85 25.9095 29.79 26.4795 29.75C27.0495 29.71 28.0295 29.7 29.4095 29.7V45.29H31.2295C31.8995 45.29 32.5395 44.97 33.1495 44.32C33.7595 43.67 34.2095 42.64 34.5095 41.24L36.9295 29.97C37.4295 29.83 37.9095 29.74 38.3695 29.71C38.8195 29.67 39.2195 29.66 39.5595 29.66C40.3295 29.66 40.8195 29.75 41.0195 29.92C41.2195 30.1 41.2695 30.43 41.1695 30.92L38.4995 41.98C38.1995 43.24 37.7695 44.29 37.2095 45.11C36.6495 45.94 36.0695 46.54 35.4695 46.93C36.6095 47.6 37.5395 48.69 38.2495 50.19C38.9595 51.7 39.4395 53.51 39.7095 55.61L41.2195 65.61C41.2895 66 41.1995 66.27 40.9695 66.43C40.7095 66.58 40.2295 66.66 39.4895 66.66Z" fill="white"/>
<path d="M49.1691 66.7701C48.1591 66.8001 47.2891 66.6201 46.5491 66.2201C45.8091 65.8201 45.4191 65.2301 45.3891 64.4601C45.3891 64.2101 45.4291 63.8701 45.5191 63.4301C45.5991 62.9901 45.7791 62.4901 46.0491 61.9301C46.5191 62.2501 46.9991 62.5001 47.4891 62.6901C47.9791 62.8801 48.4191 62.9801 48.8291 62.9801C49.4391 62.9801 49.8691 62.6901 50.1391 62.1101C50.4091 61.5301 50.6591 60.6801 50.8991 59.5601C50.6291 58.7501 50.2591 57.5201 49.7891 55.8501C49.3191 54.1801 48.8091 52.2901 48.2491 50.1601C47.6991 48.0401 47.1391 45.8501 46.5791 43.6001C46.0191 41.3501 45.4991 39.2101 44.9891 37.1801C44.4891 35.1401 44.0491 33.3901 43.6791 31.9101C43.5791 31.5201 43.4991 31.2001 43.4491 30.9401C43.3991 30.6801 43.3691 30.4801 43.3691 30.3301C43.3691 30.0801 43.4491 29.9201 43.6191 29.8301C43.7891 29.7401 44.0591 29.7001 44.4291 29.7001H47.3591L50.4891 42.3901C51.0291 44.8501 51.4491 47.0701 51.7491 49.0501C52.0491 51.0301 52.3191 52.8001 52.5591 54.3401C52.6891 52.8001 52.9291 51.0401 53.2691 49.0701C53.6091 47.1001 54.0091 44.9501 54.4791 42.5901L56.9991 31.1701C57.1291 30.6401 57.2891 30.2701 57.4491 30.0401C57.6191 29.8101 57.9391 29.7001 58.4091 29.7001H61.3391L54.7791 59.2401C54.4391 60.7501 54.0891 62.0701 53.7191 63.1901C53.3491 64.3101 52.8291 65.1801 52.1591 65.8001C51.4791 66.4101 50.4891 66.7301 49.1691 66.7701Z" fill="white"/>
<path d="M66.3799 55.55C66.0399 54.71 65.8199 53.93 65.7199 53.21C65.6199 52.49 65.6099 51.68 65.6899 50.79C65.7699 49.9 66.0499 48.97 66.5199 48.03C67.0599 46.98 67.6199 46.02 68.2099 45.16C68.7999 44.3 69.3499 43.47 69.8499 42.68C70.3499 41.89 70.7699 41.08 71.0899 40.26C71.4099 39.44 71.5699 38.53 71.5699 37.55C71.5699 36.71 71.4599 36.02 71.2399 35.5C71.0199 34.97 70.7199 34.56 70.3299 34.26C69.9399 33.96 69.4999 33.76 68.9899 33.65C68.4899 33.54 67.9799 33.49 67.4799 33.49C66.3699 33.49 65.4599 33.66 64.7499 33.99C64.0399 34.32 63.5399 34.6 63.2399 34.81C63.0699 34.28 62.9299 33.74 62.8099 33.18C62.6899 32.62 62.6299 32.04 62.6299 31.44C62.6299 30.98 62.9499 30.6 63.5899 30.28C64.2299 29.96 65.0399 29.7 66.0099 29.49C66.9899 29.28 67.9599 29.17 68.9399 29.17C69.9799 29.17 70.9399 29.32 71.8199 29.62C72.6899 29.92 73.4399 30.37 74.0699 30.99C74.6899 31.6 75.1599 32.37 75.4799 33.28C75.7999 34.19 75.9599 35.26 75.9599 36.49C75.9599 38.1 75.7599 39.51 75.3499 40.7C74.9499 41.89 74.4399 42.96 73.8399 43.91C73.2299 44.86 72.6199 45.75 71.9999 46.6C71.3799 47.44 70.8299 48.28 70.3599 49.13C69.8899 50.01 69.6799 50.87 69.7299 51.71C69.7799 52.55 69.8899 53.28 70.0599 53.9C70.2299 54.51 70.2299 54.93 70.0599 55.14C69.9299 55.32 69.6299 55.45 69.1799 55.53C68.7299 55.62 68.2499 55.66 67.7399 55.66C67.2399 55.65 66.7899 55.62 66.3799 55.55ZM68.2499 66.87C67.2099 66.87 66.4799 66.61 66.0499 66.08C65.6299 65.55 65.4199 64.82 65.4199 63.87C65.4199 63.06 65.6599 62.35 66.1499 61.74C66.6399 61.13 67.3399 60.82 68.2399 60.82C69.2799 60.82 70.0099 61.1 70.4299 61.66C70.8499 62.22 71.0599 62.96 71.0599 63.87C71.0599 64.68 70.8199 65.3801 70.3299 65.98C69.8499 66.57 69.1599 66.87 68.2499 66.87Z" fill="white"/>
</g>
<defs>
<clipPath id="clip0">
<rect width="101.09" height="101.09" fill="white"/>
</clipPath>
</defs>
</svg>
