<svg width="27" height="27" viewBox="0 0 27 27" fill="none" xmlns="http://www.w3.org/2000/svg">
<path d="M27 24.013V3.01627C27 2.19631 26.7023 1.48861 26.1068 0.893167C25.5114 0.29772 24.8037 0 23.9837 0H3.01627C2.15726 0 1.43981 0.287958 0.863883 0.863883C0.287958 1.43981 0 2.15726 0 3.01627V24.013C0 24.872 0.287958 25.5846 0.863883 26.1508C1.43981 26.7169 2.15726 27 3.01627 27H23.9837C24.8037 27 25.5114 26.7072 26.1068 26.1215C26.7023 25.5358 27 24.833 27 24.013ZM21.2603 15.9013C21.2603 15.9013 21.5629 16.2137 22.1681 16.8384C22.7733 17.4631 23.1833 17.9707 23.398 18.3612C23.398 18.3807 23.398 18.3905 23.398 18.3905C23.4957 18.5466 23.5542 18.6784 23.5738 18.7858C23.5933 18.8932 23.5835 18.9957 23.5445 19.0933C23.4664 19.2299 23.3346 19.3324 23.1491 19.4008C22.9637 19.4691 22.8319 19.5033 22.7538 19.5033C22.7538 19.5033 22.2657 19.5033 21.2896 19.5033C20.3134 19.5033 19.8059 19.5033 19.7668 19.5033C19.6497 19.5033 19.4886 19.4789 19.2836 19.43C19.0786 19.3812 18.8492 19.269 18.5954 19.0933C18.3807 18.9371 18.1757 18.7516 17.9805 18.5369C17.7852 18.3221 17.59 18.1074 17.3948 17.8926C17.102 17.5412 16.8238 17.2435 16.5602 16.9995C16.2966 16.7554 16.038 16.6334 15.7842 16.6334C15.7646 16.6334 15.7354 16.6334 15.6963 16.6334C15.6573 16.6334 15.628 16.6432 15.6085 16.6627C15.4132 16.7213 15.218 16.9067 15.0228 17.2191C14.8275 17.5315 14.7299 18.0586 14.7299 18.8004C14.7299 19.0152 14.6616 19.186 14.5249 19.3129C14.3883 19.4398 14.2516 19.5033 14.115 19.5033C14.115 19.5033 13.8953 19.5033 13.4561 19.5033C13.0168 19.5033 12.7777 19.5033 12.7386 19.5033C12.5043 19.5033 11.8747 19.3812 10.8498 19.1372C9.82483 18.8932 8.76573 18.205 7.67245 17.0727C7.00867 16.3698 6.37419 15.5401 5.76898 14.5835C5.16377 13.6269 4.63178 12.7093 4.17299 11.8308C3.71421 10.9523 3.34328 10.2007 3.0602 9.57592C2.77711 8.95119 2.63557 8.63883 2.63557 8.63883C2.55748 8.4436 2.57701 8.30206 2.69414 8.21421C2.81128 8.12636 2.9577 8.08243 3.13341 8.08243H6.14967C6.36443 8.08243 6.51573 8.13124 6.60358 8.22885C6.69143 8.32646 6.75488 8.43384 6.79393 8.55098C6.8525 8.66811 6.97939 8.95119 7.17462 9.40022C7.36985 9.84924 7.62364 10.3568 7.93601 10.923C8.46313 11.8601 8.90238 12.5287 9.2538 12.929C9.60521 13.3292 9.90781 13.5293 10.1616 13.5293C10.2007 13.5293 10.2446 13.5244 10.2934 13.5146C10.3422 13.5049 10.3861 13.4902 10.4252 13.4707C10.7766 13.2755 10.9572 12.7386 10.9669 11.8601C10.9767 10.9816 10.9718 10.4252 10.9523 10.1909C10.9523 10.1323 10.9376 9.91757 10.9084 9.54664C10.8791 9.1757 10.7766 8.8731 10.6009 8.63883C10.4837 8.46312 10.3324 8.33623 10.147 8.25813C9.9615 8.18004 9.8102 8.13124 9.69306 8.11171C9.71258 8.05315 9.76139 7.99458 9.83948 7.93601C9.91757 7.87744 9.99566 7.81887 10.0738 7.7603C10.308 7.64317 10.6204 7.56996 11.0108 7.54067C11.4013 7.51139 11.8015 7.49675 12.2115 7.49675H12.68C13.1291 7.51627 13.4414 7.54067 13.6171 7.56996C13.7928 7.59924 13.9685 7.63341 14.1443 7.67245C14.4761 7.75054 14.6665 7.92625 14.7153 8.19957C14.7641 8.47289 14.7787 8.97071 14.7592 9.69306C14.7397 9.90781 14.7251 10.1323 14.7153 10.3666C14.7055 10.6009 14.7007 10.8547 14.7007 11.128C14.7007 11.1866 14.7007 11.25 14.7007 11.3183C14.7007 11.3867 14.7007 11.4501 14.7007 11.5087C14.7007 11.8796 14.7153 12.2505 14.7446 12.6215C14.7739 12.9924 14.9252 13.2657 15.1985 13.4414C15.218 13.461 15.2473 13.4756 15.2863 13.4854C15.3254 13.4951 15.3644 13.5 15.4035 13.5C15.5011 13.5 15.711 13.3975 16.0331 13.1925C16.3552 12.9875 16.8872 12.2505 17.6291 10.9816C17.961 10.4154 18.2392 9.859 18.4637 9.31236C18.6882 8.76572 18.8102 8.47289 18.8297 8.43384C18.8297 8.39479 18.8541 8.34599 18.9029 8.28742C18.9517 8.22885 18.9957 8.18004 19.0347 8.141C19.0738 8.12148 19.1177 8.10683 19.1665 8.09707C19.2153 8.08731 19.2592 8.08243 19.2983 8.08243H22.8417C23.0369 8.08243 23.1979 8.09707 23.3248 8.12636C23.4517 8.15564 23.5249 8.20933 23.5445 8.28742C23.5835 8.40456 23.5249 8.68763 23.3688 9.13666C23.2126 9.58569 22.7245 10.3568 21.9046 11.4501C21.7679 11.6453 21.641 11.821 21.5239 11.9772C21.4067 12.1334 21.2896 12.2798 21.1725 12.4165C20.4501 13.3926 20.0889 14.0369 20.0889 14.3492C20.0889 14.6616 20.4794 15.179 21.2603 15.9013Z" fill="#3E99FE"/>
</svg>
