<svg width="26" height="19" viewBox="0 0 26 19" fill="none" xmlns="http://www.w3.org/2000/svg">
<path d="M25.7247 2.33754L23.6447 0.299685C23.4408 0.0998935 23.2063 0 22.9412 0C22.6761 0 22.4416 0.0998935 22.2376 0.299685L9.72706 12.5568L3.76235 6.68296C3.55843 6.50315 3.32392 6.41325 3.05882 6.41325C2.79372 6.41325 2.55922 6.50315 2.35529 6.68296L0.275295 8.72082C0.0917641 8.92061 0 9.15037 0 9.41009C0 9.66982 0.0917641 9.89958 0.275295 10.0994L9.02353 18.7003C9.20706 18.9001 9.43647 19 9.71176 19C9.98706 19 10.2165 18.9001 10.4 18.7003L25.7247 3.71609C25.9082 3.5163 26 3.28155 26 3.01183C26 2.74211 25.9082 2.51735 25.7247 2.33754Z" fill="url(#paint0_linear)"/>
<defs>
<linearGradient id="paint0_linear" x1="15.1611" y1="-8.19608" x2="34.17" y2="7.12856" gradientUnits="userSpaceOnUse">
<stop stop-color="#4690FF"/>
<stop offset="1" stop-color="#16C1F8"/>
</linearGradient>
</defs>
</svg>
