<?xml version="1.0" encoding="utf-8"?>
<!-- Generator: Adobe Illustrator 22.0.1, SVG Export Plug-In . SVG Version: 6.00 Build 0)  -->
<svg version="1.1" id="Слой_1" xmlns="http://www.w3.org/2000/svg" xmlns:xlink="http://www.w3.org/1999/xlink" x="0px" y="0px"
	 viewBox="0 0 63 61" style="enable-background:new 0 0 63 61;" xml:space="preserve">
<style type="text/css">
	.st0{clip-path:url(#SVGID_2_);}
	.st1{fill:url(#SVGID_3_);}
	.st2{fill:url(#SVGID_4_);}
	.st3{fill:url(#SVGID_5_);}
	.st4{fill:url(#SVGID_6_);}
	.st5{fill:url(#SVGID_7_);}
	.st6{fill:url(#SVGID_8_);}
	.st7{fill:none;stroke:#F47F2B;stroke-width:2;stroke-miterlimit:10;}
	.st8{fill:url(#SVGID_9_);}
	.st9{clip-path:url(#SVGID_11_);}
	.st10{fill:#FFFFFF;}
	.st11{fill:#FF0000;}
</style>
<g>
	<g>
		<defs>
			<rect id="SVGID_1_" x="6.6" y="8.4" width="48.2" height="42.9"/>
		</defs>
		<clipPath id="SVGID_2_">
			<use xlink:href="#SVGID_1_"  style="overflow:visible;"/>
		</clipPath>
		<g class="st0">
			<g>
				
					<linearGradient id="SVGID_3_" gradientUnits="userSpaceOnUse" x1="19.3644" y1="42.8657" x2="50.6077" y2="21.1908" gradientTransform="matrix(1 0 0 -1 0 62)">
					<stop  offset="0" style="stop-color:#FFB95A"/>
					<stop  offset="1" style="stop-color:#F7D660"/>
				</linearGradient>
				<path class="st1" d="M49,38.7l-1-22.3c-0.1-2-1.9-3.8-3.8-3.6l-29.6,2.5c-2.2,0.2-3.7,2.1-3.2,4.2L16,40
					c0.4,1.9,2.1,3.3,4.1,3.2l4.3-0.2l0.9,2.6c0.1,0.4,0.9,0.5,1.2,0.1l2.7-2.9l17-0.6C47.9,42.1,49.1,40.6,49,38.7z"/>
			</g>
			
				<linearGradient id="SVGID_4_" gradientUnits="userSpaceOnUse" x1="31.3403" y1="16.0224" x2="33.5572" y2="14.4482" gradientTransform="matrix(1 0 0 -1 0 62)">
				<stop  offset="0" style="stop-color:#F4852F"/>
				<stop  offset="1" style="stop-color:#F6C556"/>
			</linearGradient>
			<ellipse class="st2" cx="32.2" cy="46.6" rx="1.4" ry="1.1"/>
			
				<linearGradient id="SVGID_5_" gradientUnits="userSpaceOnUse" x1="22.9509" y1="13.6391" x2="23.402" y2="13.3588" gradientTransform="matrix(1 0 0 -1 0 62)">
				<stop  offset="0" style="stop-color:#F8D661"/>
				<stop  offset="1" style="stop-color:#FEC05C"/>
			</linearGradient>
			<ellipse class="st3" cx="23.1" cy="48.5" rx="0.3" ry="0.2"/>
			
				<linearGradient id="SVGID_6_" gradientUnits="userSpaceOnUse" x1="49.9613" y1="44.5103" x2="50.7131" y2="44.0431" gradientTransform="matrix(1 0 0 -1 0 62)">
				<stop  offset="0" style="stop-color:#F8D661"/>
				<stop  offset="1" style="stop-color:#FEC05C"/>
			</linearGradient>
			<ellipse class="st4" cx="50.3" cy="17.7" rx="0.4" ry="0.4"/>
			
				<linearGradient id="SVGID_7_" gradientUnits="userSpaceOnUse" x1="44.6032" y1="50.952" x2="46.2572" y2="49.9243" gradientTransform="matrix(1 0 0 -1 0 62)">
				<stop  offset="0" style="stop-color:#F47F2B"/>
				<stop  offset="1" style="stop-color:#F7D660"/>
			</linearGradient>
			<ellipse class="st5" cx="45.2" cy="11.4" rx="1" ry="0.9"/>
			
				<linearGradient id="SVGID_8_" gradientUnits="userSpaceOnUse" x1="23.9006" y1="14.9762" x2="24.8029" y2="14.4156" gradientTransform="matrix(1 0 0 -1 0 62)">
				<stop  offset="0" style="stop-color:#F47F2B"/>
				<stop  offset="1" style="stop-color:#F7D35F"/>
			</linearGradient>
			<ellipse class="st6" cx="24.2" cy="47.2" rx="0.5" ry="0.5"/>
			<path class="st7" d="M45.8,9.1l-33.1,4.8c-2.7,0.4-4.3,3-3.5,5.8l7.5,24c0.6,2,2.6,3.2,4.7,2.8l3.9-0.7l1.1,3.4
				c0.3,0.9,1.6,1,2.1,0.2l2.6-4.7l16-3c1.5-0.3,2.7-2,2.7-3.9l-0.3-24.5C49.5,10.9,47.7,8.8,45.8,9.1z"/>
			
				<linearGradient id="SVGID_9_" gradientUnits="userSpaceOnUse" x1="29.8916" y1="13.1017" x2="30.493" y2="12.728" gradientTransform="matrix(1 0 0 -1 0 62)">
				<stop  offset="0" style="stop-color:#F47F2B"/>
				<stop  offset="1" style="stop-color:#F7D35F"/>
			</linearGradient>
			<ellipse class="st8" cx="30.1" cy="49" rx="0.3" ry="0.3"/>
			<g>
				<defs>
					<rect id="SVGID_10_" x="20.1" y="19.6" width="22.8" height="17.5"/>
				</defs>
				<clipPath id="SVGID_11_">
					<use xlink:href="#SVGID_10_"  style="overflow:visible;"/>
				</clipPath>
				<g class="st9">
					<path class="st10" d="M31.3,37.1c-2.4-2.1-11.1-5.3-11.2-11.8c-0.1-6.4,7.6-7.7,10.9-2.7c3.7-2.6,8.7-2.1,9.1,2.6
						C40.5,30,35.6,30.3,31.3,37.1z"/>
					<path class="st11" d="M37.3,37c-1.5-1.3-6.9-3.3-7-7.3s4.7-4.8,6.8-1.7c2.3-1.6,5.4-1.3,5.7,1.6C43,32.6,40,32.8,37.3,37z"/>
				</g>
			</g>
		</g>
	</g>
</g>
</svg>
