<svg width="34" height="34" viewBox="0 0 34 34" fill="none" xmlns="http://www.w3.org/2000/svg">
<path d="M28.9708 5.02917C25.6653 1.67637 21.675 0 17 0C12.325 0 8.32293 1.66457 4.99375 4.99375C1.66457 8.32293 0 12.325 0 17C0 21.675 1.66457 25.6771 4.99375 29.0063C8.32293 32.3354 12.325 34 17 34C21.675 34 25.6771 32.3354 29.0063 29.0063C32.3354 25.6771 34 21.675 34 17C34 12.325 32.3236 8.33474 28.9708 5.02917ZM27.4125 27.4125C24.5319 30.2931 21.0611 31.7333 17 31.7333C12.9389 31.7333 9.46807 30.2931 6.5875 27.4125C3.70693 24.5319 2.26667 21.0611 2.26667 17C2.26667 12.9389 3.70693 9.46807 6.5875 6.5875C9.46807 3.70693 12.9389 2.26667 17 2.26667C21.0611 2.26667 24.5319 3.70693 27.4125 6.5875C30.2931 9.46807 31.7333 12.9389 31.7333 17C31.7333 21.0611 30.2931 24.5319 27.4125 27.4125ZM23.3042 9.1375L17.0708 15.3708L11.475 9.1375C10.9083 8.57083 10.3653 8.55903 9.84583 9.10208C9.32639 9.64514 9.32639 10.1764 9.84583 10.6958L15.4417 16.9292L9.1375 23.3042C8.61805 23.8236 8.61805 24.3549 9.1375 24.8979C9.65695 25.441 10.1764 25.4292 10.6958 24.8625L16.9292 18.6292L22.525 24.8625C23.0917 25.4292 23.6347 25.441 24.1542 24.8979C24.6736 24.3549 24.6736 23.8236 24.1542 23.3042L18.5583 17.0708L24.8625 10.6958C25.4292 10.1764 25.441 9.64514 24.8979 9.10208C24.3549 8.55903 23.8236 8.57083 23.3042 9.1375Z" fill="#BDBDBD"/>
</svg>
