<svg width="71" height="71" viewBox="0 0 71 71" fill="none" xmlns="http://www.w3.org/2000/svg">
<path d="M35.3553 55.44C40.9436 55.3846 45.6742 53.4204 49.5473 49.5474C53.4203 45.6744 55.3568 40.9714 55.3568 35.4385C55.3568 29.7949 53.4203 25.0366 49.5473 21.1635C45.6742 17.2905 40.9436 15.3816 35.3553 15.437C29.7671 15.3816 25.0365 17.2905 21.1634 21.1635C17.2904 25.0366 15.3538 29.7949 15.3538 35.4385C15.3538 40.9714 17.2904 45.6744 21.1634 49.5474C25.0365 53.4204 29.7671 55.3846 35.3553 55.44ZM10.3742 35.4385C10.3742 28.467 12.8087 22.5468 17.6777 17.6778C22.5466 12.8088 28.4392 10.402 35.3553 10.4573C42.2715 10.402 48.164 12.8088 53.033 17.6778C57.902 22.5468 60.3365 28.467 60.3365 35.4385C60.3365 42.2993 57.902 48.1642 53.033 53.0331C48.164 57.9021 42.2715 60.3643 35.3553 60.4196C28.4392 60.3643 22.5466 57.9021 17.6777 53.0331C12.8087 48.1642 10.3742 42.2993 10.3742 35.4385ZM28.2179 24.7323L35.3553 31.8697L42.4928 24.7323L45.9785 28.218L38.8411 35.3555L45.9785 42.4929L42.4928 45.9787L35.3553 38.8412L28.2179 45.9787L24.7321 42.4929L31.8696 35.3555L24.7321 28.218L28.2179 24.7323Z" fill="#BABCD0"/>
</svg>
