<svg width="34" height="30" viewBox="0 0 34 30" fill="none" xmlns="http://www.w3.org/2000/svg">
<path d="M17.0429 2.58475C18.7887 4.30792 19.6616 6.38417 19.6616 8.81356C19.6616 11.2429 18.7887 13.3192 17.0429 15.0424C15.2971 16.7655 13.1936 17.6271 10.7323 17.6271C8.27103 17.6271 6.16752 16.7655 4.42172 15.0424C2.67592 13.3192 1.80303 11.2429 1.80303 8.81356C1.80303 6.38417 2.67592 4.30792 4.42172 2.58475C6.16752 0.861573 8.27103 0 10.7323 0C13.1936 0 15.2971 0.861573 17.0429 2.58475ZM10.7323 30C7.52692 30 4.93688 29.6469 2.96212 28.9407C0.987363 28.2345 0 27.4153 0 26.483C0 24.6186 0.987363 22.9732 2.96212 21.5466C4.93688 20.1201 7.52692 19.4068 10.7323 19.4068C13.8519 19.4068 16.4204 20.1201 18.4381 21.5466C20.4558 22.9732 21.4646 24.6186 21.4646 26.483C21.4646 27.4153 20.4415 28.2345 18.3952 28.9407C16.3489 29.6469 13.7946 30 10.7323 30ZM32.197 14.1102C32.6835 14.1102 33.1056 14.2867 33.4634 14.6398C33.8211 14.9929 34 15.4096 34 15.8898C34 16.3701 33.8211 16.7797 33.4634 17.1186C33.1056 17.4576 32.6835 17.6271 32.197 17.6271H28.6338V21.1864C28.6338 21.6667 28.455 22.0763 28.0972 22.4153C27.7395 22.7542 27.3173 22.9237 26.8308 22.9237C26.3443 22.9237 25.9221 22.7542 25.5644 22.4153C25.2066 22.0763 25.0278 21.6667 25.0278 21.1864V17.6271H21.4646C20.9781 17.6271 20.556 17.4576 20.1982 17.1186C19.8405 16.7797 19.6616 16.3701 19.6616 15.8898C19.6616 15.4096 19.8405 14.9929 20.1982 14.6398C20.556 14.2867 20.9781 14.1102 21.4646 14.1102H25.0278V10.5932C25.0278 10.113 25.2066 9.69633 25.5644 9.34322C25.9221 8.99011 26.3443 8.81356 26.8308 8.81356C27.3173 8.81356 27.7395 8.99011 28.0972 9.34322C28.455 9.69633 28.6338 10.113 28.6338 10.5932V14.1102H32.197Z" fill="url(#paint0_linear)"/>
<defs>
<linearGradient id="paint0_linear" x1="19.8261" y1="-12.9412" x2="48.1935" y2="5.99928" gradientUnits="userSpaceOnUse">
<stop stop-color="#4690FF"/>
<stop offset="1" stop-color="#16C1F8"/>
</linearGradient>
</defs>
</svg>
