<svg width="35" height="24" viewBox="0 0 35 24" fill="none" xmlns="http://www.w3.org/2000/svg">
<path d="M27.2526 8.75L35 1.0026V22.3307L27.2526 14.5833V21.4193C27.2526 21.9661 27.0399 22.4219 26.6146 22.7865C26.25 23.151 25.7943 23.3333 25.2474 23.3333H1.91406C1.36719 23.3333 0.911458 23.151 0.546875 22.7865C0.182292 22.4219 0 21.9661 0 21.4193V1.91406C0 1.36719 0.182292 0.911458 0.546875 0.546875C0.911458 0.182292 1.36719 0 1.91406 0H25.2474C25.7943 0 26.25 0.182292 26.6146 0.546875C27.0399 0.911458 27.2526 1.36719 27.2526 1.91406V8.75Z" fill="white"/>
</svg>
