<svg width="32" height="26" viewBox="0 0 32 26" fill="none" xmlns="http://www.w3.org/2000/svg">
<path d="M14.8595 18.9777C14.0339 18.2039 13.6212 17.256 13.6212 16.1339C13.6212 15.0119 14.0557 14.064 14.9246 13.2902C15.7936 12.5164 16.8364 12.1295 18.053 12.1295C19.313 12.1295 20.3775 12.5164 21.2464 13.2902C22.1154 14.064 22.5499 15.0119 22.5499 16.1339C22.5499 17.2173 22.1154 18.1458 21.2464 18.9196C20.3775 19.6935 19.313 20.0804 18.053 20.0804C16.7929 20.0804 15.7284 19.7128 14.8595 18.9777ZM13.165 20.4866C14.5119 21.686 16.1412 22.2857 18.053 22.2857C19.9647 22.2857 21.594 21.686 22.9409 20.4866C24.3313 19.2872 25.0265 17.8363 25.0265 16.1339C25.0265 14.4315 24.3313 12.9807 22.9409 11.7812C21.594 10.5432 19.9647 9.92411 18.053 9.92411C16.1412 9.92411 14.5119 10.5432 13.165 11.7812C11.8181 12.9807 11.1446 14.4315 11.1446 16.1339C11.1446 17.8363 11.8181 19.2872 13.165 20.4866ZM8.34216 11.1429V7.42857H12.5132V3.71429H22.224L24.7658 6.20982H29.1976C29.9362 6.20982 30.5879 6.46131 31.1527 6.96429C31.7176 7.46726 32 8.04762 32 8.70536V23.5625C32 24.2202 31.7176 24.8006 31.1527 25.3036C30.5879 25.7679 29.9362 26 29.1976 26H6.97352C6.23489 26 5.58316 25.7679 5.01833 25.3036C4.4535 24.8006 4.17108 24.2202 4.17108 23.5625V11.1429H8.34216ZM4.17108 3.71429V0H6.97352V3.71429H11.1446V6.20982H6.97352V9.92411H4.17108V6.20982H0V3.71429H4.17108Z" fill="url(#paint0_linear)"/>
<defs>
<linearGradient id="paint0_linear" x1="18.6599" y1="-11.2157" x2="43.9596" y2="7.1288" gradientUnits="userSpaceOnUse">
<stop stop-color="#4690FF"/>
<stop offset="1" stop-color="#16C1F8"/>
</linearGradient>
</defs>
</svg>
