<svg width="72" height="72" viewBox="0 0 72 72" fill="none" xmlns="http://www.w3.org/2000/svg">
<rect width="72" height="72" rx="36" fill="url(#paint0_linear)"/>
<path d="M55.5866 21.4007C54.4518 20.2425 53.1581 19.38 51.7282 18.8379C50.2983 18.2711 48.8231 18 47.3251 18C45.8272 18 44.3746 18.2711 42.9447 18.8379C41.5148 19.4046 40.2211 20.2425 39.0863 21.4007L35.9996 24.4564L32.9129 21.4007C31.7781 20.2425 30.4844 19.38 29.0545 18.8379C27.6246 18.2711 26.1721 18 24.6741 18C23.1761 18 21.7236 18.2711 20.2937 18.8379C18.8638 19.4046 17.5701 20.2425 16.4353 21.4007C15.1416 22.6821 14.1884 24.1114 13.5529 25.7132C12.9174 27.315 12.5996 28.9414 12.5996 30.6171C12.5996 32.2929 12.9174 33.9439 13.5529 35.5457C14.1884 37.1721 15.1416 38.6014 16.4353 39.8829L35.9996 59.4L55.5639 39.8829C56.8349 38.6014 57.7882 37.1721 58.4464 35.5457C59.0819 33.9193 59.3996 32.2929 59.3996 30.6171C59.3996 28.9414 59.0819 27.315 58.4464 25.7132C57.8109 24.1114 56.8576 22.6821 55.5866 21.4007Z" fill="white"/>
<defs>
<linearGradient id="paint0_linear" x1="41.9847" y1="-31.0588" x2="106.459" y2="6.92533" gradientUnits="userSpaceOnUse">
<stop stop-color="#4690FF"/>
<stop offset="1" stop-color="#16C1F8"/>
</linearGradient>
</defs>
</svg>
