<svg width="43" height="43" viewBox="0 0 43 43" fill="none" xmlns="http://www.w3.org/2000/svg">
<circle cx="21.5" cy="21.5" r="21.5" fill="white"/>
<path d="M14.3683 21.5L21.5273 30.1935C21.7903 30.5129 21.9219 30.9008 21.9219 31.3571C21.9219 31.8135 21.7903 32.2014 21.5273 32.5208C21.2642 32.8403 20.9448 33 20.569 33C20.1932 33 19.8738 32.8403 19.6107 32.5208L11.4934 22.6637C10.8546 21.8879 10.8358 21.1349 11.4371 20.4048L19.6107 10.4792C19.8738 10.1597 20.1932 10 20.569 10C20.9448 10 21.2642 10.1597 21.5273 10.4792C21.7903 10.7986 21.9219 11.1865 21.9219 11.6429C21.9219 12.0992 21.7903 12.4871 21.5273 12.8065L14.3683 21.5Z" fill="url(#paint0_linear)"/>
<path d="M21.3351 21.5L28.4941 30.1935C28.7571 30.5129 28.8887 30.9008 28.8887 31.3571C28.8887 31.8135 28.7571 32.2014 28.4941 32.5208C28.231 32.8403 27.9116 33 27.5358 33C27.16 33 26.8406 32.8403 26.5775 32.5208L18.4602 22.6637C17.8214 21.8879 17.8026 21.1349 18.4039 20.4048L26.5775 10.4792C26.8406 10.1597 27.16 10 27.5358 10C27.9116 10 28.231 10.1597 28.4941 10.4792C28.7571 10.7986 28.8887 11.1865 28.8887 11.6429C28.8887 12.0992 28.7571 12.4871 28.4941 12.8065L21.3351 21.5Z" fill="url(#paint1_linear)"/>
<defs>
<linearGradient id="paint0_linear" x1="15.553" y1="42.9216" x2="3.33417" y2="39.5032" gradientUnits="userSpaceOnUse">
<stop stop-color="#4690FF"/>
<stop offset="1" stop-color="#16C1F8"/>
</linearGradient>
<linearGradient id="paint1_linear" x1="22.5198" y1="42.9216" x2="10.301" y2="39.5032" gradientUnits="userSpaceOnUse">
<stop stop-color="#4690FF"/>
<stop offset="1" stop-color="#16C1F8"/>
</linearGradient>
</defs>
</svg>
