<svg width="25" height="26" viewBox="0 0 25 26" fill="none" xmlns="http://www.w3.org/2000/svg">
<path d="M19.8851 12.9688L10.0814 3.16499C9.72114 2.80475 9.54102 2.36731 9.54102 1.85268C9.54102 1.33804 9.72114 0.900609 10.0814 0.540365C10.4416 0.18012 10.8791 0 11.3937 0C11.9083 0 12.3458 0.18012 12.706 0.540365L23.8221 11.6564C24.697 12.5313 24.7227 13.3805 23.8993 14.2039L12.706 25.3971C12.3458 25.7574 11.9083 25.9375 11.3937 25.9375C10.8791 25.9375 10.4416 25.7574 10.0814 25.3971C9.72114 25.0369 9.54102 24.5995 9.54102 24.0848C9.54102 23.5702 9.72114 23.1328 10.0814 22.7725L19.8851 12.9688Z" fill="#3D9AFE"/>
<path d="M10.3441 12.9688L0.540365 3.16499C0.18012 2.80475 0 2.36731 0 1.85268C0 1.33804 0.18012 0.900609 0.540365 0.540365C0.900609 0.18012 1.33804 0 1.85268 0C2.36731 0 2.80475 0.18012 3.16499 0.540365L14.2811 11.6564C15.1559 12.5313 15.1817 13.3805 14.3583 14.2039L3.16499 25.3971C2.80475 25.7574 2.36731 25.9375 1.85268 25.9375C1.33804 25.9375 0.900609 25.7574 0.540365 25.3971C0.18012 25.0369 0 24.5995 0 24.0848C0 23.5702 0.18012 23.1328 0.540365 22.7725L10.3441 12.9688Z" fill="#3D9AFE"/>
</svg>
