<svg width="40" height="40" viewBox="0 0 40 40" fill="none" xmlns="http://www.w3.org/2000/svg">
<rect width="40" height="40" rx="20" fill="#BAE0FF"/>
<path d="M30.8817 11.8893C30.2512 11.2458 29.5325 10.7667 28.7381 10.4655C27.9437 10.1506 27.1242 10 26.292 10C25.4597 10 24.6528 10.1506 23.8584 10.4655C23.064 10.7804 22.3453 11.2458 21.7148 11.8893L20 13.5869L18.2852 11.8893C17.6547 11.2458 16.936 10.7667 16.1416 10.4655C15.3472 10.1506 14.5403 10 13.7081 10C12.8758 10 12.0689 10.1506 11.2745 10.4655C10.4801 10.7804 9.7614 11.2458 9.13094 11.8893C8.41222 12.6012 7.88264 13.3952 7.52958 14.2851C7.17653 15.175 7 16.0786 7 17.0095C7 17.9405 7.17653 18.8577 7.52958 19.7476C7.88264 20.6512 8.41222 21.4452 9.13094 22.1571L20 33L30.8691 22.1571C31.5752 21.4452 32.1048 20.6512 32.4704 19.7476C32.8235 18.844 33 17.9405 33 17.0095C33 16.0786 32.8235 15.175 32.4704 14.2851C32.1174 13.3952 31.5878 12.6012 30.8817 11.8893Z" fill="white"/>
</svg>
