<svg width="273" height="262" viewBox="0 0 273 262" fill="none" xmlns="http://www.w3.org/2000/svg">
  <g filter="url(#filter0_d)">
    <path d="M238.452 29.9321L52.312 12.3049C35.1323 10.6829 20.744 21.1979 21.3568 35.8986L27.8247 188.713C28.4715 204.015 41.169 214.462 57.475 213.486L87.1366 211.706L95.0002 237.262C96.7477 242.945 102.614 242.729 104.112 236.978L111.079 210.265L236.387 202.733C245.805 202.166 253.112 192.366 253.362 180.591L256.108 52.2894C256.346 41.6155 247.881 30.8169 238.452 29.9321Z" fill="url(#paint0_linear)"/>
  </g>
  <path d="M243.32 5.56715L25.8504 5.68058C10.1572 5.68058 -0.724772 19.1562 1.98721 35.3882L26.588 182.679C28.7439 195.576 39.5692 205.467 52.3008 206.34L82.0418 208.393L85.3779 243.432C85.9453 249.342 90.8132 251.577 93.0032 246.949L110.33 210.356L227.32 218.455C238.804 219.249 248.698 210.038 250.037 197.425L267.251 36.3524C268.953 20.6308 257.345 5.5558 243.32 5.56715Z" stroke="#1157BF" stroke-width="2" stroke-miterlimit="10"/>
  <ellipse cx="118.5" cy="221" rx="5.5" ry="5" fill="url(#paint1_linear)"/>
  <ellipse cx="74.5" cy="241" rx="3.5" ry="3" fill="url(#paint2_linear)"/>
  <ellipse cx="65.5" cy="223" rx="5.5" ry="5" fill="url(#paint3_linear)"/>
  <ellipse cx="233.5" cy="20" rx="3.5" ry="3" fill="url(#paint4_linear)"/>
  <ellipse cx="210" cy="26" rx="7" ry="6" fill="url(#paint5_linear)"/>
  <g clip-path="url(#clip0)">
    <path d="M58 93.6837L104.542 119.006L91.3389 182L145.437 141.965L193.861 158.444L173.195 111.942L202 73.6727L152.635 82.503L125.937 46L111.461 84.2691L58 93.6837Z" fill="white"/>
    <path d="M90.7095 48L86.1141 56.3019L71.8447 59.0653L83.8046 67.3672L82.8855 77.5114L91.6286 68.7489L104.048 73.8269L99.9121 62.2892L107.277 54.4597L95.7762 55.3808L90.7095 48Z" fill="#0E53A0"/>
    <path d="M166.192 56.3728L163.423 61.3799L154.821 63.0569L162.033 68.064L161.479 74.1812L166.746 68.8906L174.24 71.9611L171.742 65.0054L176.184 60.2699L169.244 60.8249L166.192 56.3728Z" fill="#0E53A0"/>
    <path d="M147.669 154.295L142.696 163.318L131.832 163.637L142.083 171.419L140.834 182L151.086 172.978L163.199 179.508L159.475 168.927L166.309 160.212L152.947 161.145L147.669 154.295Z" fill="#0E53A0"/>
    <path d="M94 176.5L108 118.5L63 95L136.5 107L94 176.5Z" fill="#AFD9FF"/>
    <path d="M62.5 94.5L114 85.5L126 48.5L139.918 105.667L62.5 94.5Z" fill="#319CFF"/>
    <path d="M94.5 177L144.5 138.5L191.5 156.5L141 107.5L94.5 177Z" fill="#72BBFF"/>
    <path d="M193.714 158.935L167.562 108.119L199.5 75L143.601 105.864L193.714 158.935Z" fill="#E6F3FF"/>
  </g>
  <defs>
    <filter id="filter0_d" x="5.33789" y="0.139893" width="266.775" height="261.27" filterUnits="userSpaceOnUse" color-interpolation-filters="sRGB">
      <feFlood flood-opacity="0" result="BackgroundImageFix"/>
      <feColorMatrix in="SourceAlpha" type="matrix" values="0 0 0 0 0 0 0 0 0 0 0 0 0 0 0 0 0 0 127 0"/>
      <feOffset dy="4"/>
      <feGaussianBlur stdDeviation="8"/>
      <feColorMatrix type="matrix" values="0 0 0 0 0.275 0 0 0 0 0.565 0 0 0 0 1 0 0 0 1 0"/>
      <feBlend mode="normal" in2="BackgroundImageFix" result="effect1_dropShadow"/>
      <feBlend mode="normal" in="SourceGraphic" in2="effect1_dropShadow" result="shape"/>
    </filter>
    <linearGradient id="paint0_linear" x1="158.24" y1="-86.7608" x2="365.877" y2="38.5021" gradientUnits="userSpaceOnUse">
      <stop stop-color="#4690FF"/>
      <stop offset="1" stop-color="#16C1F8"/>
    </linearGradient>
    <linearGradient id="paint1_linear" x1="119.414" y1="211.686" x2="128.759" y2="217.742" gradientUnits="userSpaceOnUse">
      <stop stop-color="#4690FF"/>
      <stop offset="1" stop-color="#16C1F8"/>
    </linearGradient>
    <linearGradient id="paint2_linear" x1="75.0818" y1="235.412" x2="80.8166" y2="239.353" gradientUnits="userSpaceOnUse">
      <stop stop-color="#4690FF"/>
      <stop offset="1" stop-color="#16C1F8"/>
    </linearGradient>
    <linearGradient id="paint3_linear" x1="66.4143" y1="213.686" x2="75.759" y2="219.742" gradientUnits="userSpaceOnUse">
      <stop stop-color="#4690FF"/>
      <stop offset="1" stop-color="#16C1F8"/>
    </linearGradient>
    <linearGradient id="paint4_linear" x1="234.082" y1="14.4118" x2="239.817" y2="18.3534" gradientUnits="userSpaceOnUse">
      <stop stop-color="#4690FF"/>
      <stop offset="1" stop-color="#16C1F8"/>
    </linearGradient>
    <linearGradient id="paint5_linear" x1="211.164" y1="14.8235" x2="222.633" y2="22.7068" gradientUnits="userSpaceOnUse">
      <stop stop-color="#4690FF"/>
      <stop offset="1" stop-color="#16C1F8"/>
    </linearGradient>
    <clipPath id="clip0">
      <rect x="58" y="46" width="144" height="136" fill="white"/>
    </clipPath>
  </defs>
</svg>
