<svg width="26" height="26" viewBox="0 0 26 26" fill="none" xmlns="http://www.w3.org/2000/svg">
<path d="M20.6117 13.0312L10.8079 3.22749C10.4477 2.86725 10.2676 2.42981 10.2676 1.91518C10.2676 1.40054 10.4477 0.963109 10.8079 0.602865C11.1682 0.24262 11.6056 0.0625 12.1203 0.0625C12.6349 0.0625 13.0723 0.24262 13.4326 0.602865L24.5486 11.7189C25.4235 12.5938 25.4493 13.443 24.6258 14.2664L13.4326 25.4596C13.0723 25.8199 12.6349 26 12.1203 26C11.6056 26 11.1682 25.8199 10.8079 25.4596C10.4477 25.0994 10.2676 24.662 10.2676 24.1473C10.2676 23.6327 10.4477 23.1953 10.8079 22.835L20.6117 13.0312Z" fill="#3D9AFE"/>
<path d="M11.0707 13.0312L1.26693 3.22749C0.906682 2.86725 0.726562 2.42981 0.726562 1.91518C0.726562 1.40054 0.906682 0.963109 1.26693 0.602865C1.62717 0.24262 2.06461 0.0625 2.57924 0.0625C3.09388 0.0625 3.53131 0.24262 3.89155 0.602865L15.0076 11.7189C15.8825 12.5938 15.9082 13.443 15.0848 14.2664L3.89155 25.4596C3.53131 25.8199 3.09388 26 2.57924 26C2.06461 26 1.62717 25.8199 1.26693 25.4596C0.906682 25.0994 0.726562 24.662 0.726562 24.1473C0.726562 23.6327 0.906682 23.1953 1.26693 22.835L11.0707 13.0312Z" fill="#3D9AFE"/>
</svg>
