<svg width="46" height="46" viewBox="0 0 46 46" fill="none" xmlns="http://www.w3.org/2000/svg">
    <path d="M46 40.9111V5.13883C46 3.74186 45.4928 2.53616 44.4783 1.52169C43.4638 0.507226 42.2581 0 40.8612 0H5.13883C3.67534 0 2.45301 0.490596 1.4718 1.4718C0.490596 2.45301 0 3.67534 0 5.13883V40.9111C0 42.3746 0.490596 43.5886 1.4718 44.5531C2.45301 45.5177 3.67534 46 5.13883 46H40.8612C42.2581 46 43.4638 45.5011 44.4783 44.5033C45.4928 43.5054 46 42.308 46 40.9111ZM36.2213 27.0911C36.2213 27.0911 36.7368 27.6233 37.7679 28.6876C38.799 29.752 39.4975 30.6168 39.8633 31.282C39.8633 31.3153 39.8633 31.3319 39.8633 31.3319C40.0296 31.598 40.1294 31.8225 40.1627 32.0054C40.196 32.1884 40.1793 32.363 40.1128 32.5293C39.9798 32.7621 39.7552 32.9367 39.4393 33.0531C39.1233 33.1696 38.8988 33.2278 38.7657 33.2278C38.7657 33.2278 37.9342 33.2278 36.2711 33.2278C34.6081 33.2278 33.7433 33.2278 33.6768 33.2278C33.4772 33.2278 33.2028 33.1862 32.8536 33.103C32.5043 33.0199 32.1135 32.8286 31.6811 32.5293C31.3153 32.2632 30.966 31.9472 30.6334 31.5813C30.3008 31.2155 29.9682 30.8496 29.6356 30.4837C29.1367 29.885 28.6627 29.3778 28.2137 28.962C27.7646 28.5463 27.3239 28.3384 26.8915 28.3384C26.8583 28.3384 26.8084 28.3384 26.7419 28.3384C26.6753 28.3384 26.6255 28.355 26.5922 28.3883C26.2596 28.4881 25.927 28.804 25.5944 29.3362C25.2617 29.8684 25.0954 30.7664 25.0954 32.0304C25.0954 32.3962 24.979 32.6873 24.7462 32.9035C24.5134 33.1197 24.2806 33.2278 24.0477 33.2278C24.0477 33.2278 23.6735 33.2278 22.9252 33.2278C22.1768 33.2278 21.7693 33.2278 21.7028 33.2278C21.3037 33.2278 20.231 33.0199 18.4848 32.6041C16.7386 32.1884 14.9342 31.0159 13.0716 29.0868C11.9407 27.8894 10.8597 26.4758 9.82863 24.846C8.79754 23.2162 7.89118 21.6529 7.10954 20.1562C6.32791 18.6594 5.69595 17.3789 5.21367 16.3145C4.73138 15.2502 4.49024 14.718 4.49024 14.718C4.35719 14.3854 4.39045 14.1443 4.59002 13.9946C4.78959 13.8449 5.03904 13.7701 5.3384 13.7701H10.4772C10.8431 13.7701 11.1009 13.8532 11.2505 14.0195C11.4002 14.1858 11.5083 14.3688 11.5748 14.5683C11.6746 14.7679 11.8908 15.2502 12.2234 16.0152C12.556 16.7802 12.9884 17.645 13.5206 18.6095C14.4187 20.2061 15.167 21.3453 15.7657 22.0271C16.3644 22.709 16.88 23.0499 17.3124 23.0499C17.3789 23.0499 17.4537 23.0416 17.5369 23.0249C17.62 23.0083 17.6949 22.9834 17.7614 22.9501C18.3601 22.6175 18.6678 21.7028 18.6844 20.2061C18.701 18.7093 18.6927 17.7614 18.6594 17.3623C18.6594 17.2625 18.6345 16.8966 18.5846 16.2646C18.5347 15.6327 18.3601 15.1171 18.0607 14.718C17.8612 14.4187 17.6034 14.2025 17.2874 14.0694C16.9714 13.9364 16.7137 13.8532 16.5141 13.82C16.5474 13.7202 16.6305 13.6204 16.7636 13.5206C16.8966 13.4208 17.0296 13.321 17.1627 13.2213C17.5618 13.0217 18.094 12.897 18.7592 12.8471C19.4244 12.7972 20.1063 12.7722 20.8048 12.7722H21.603C22.368 12.8055 22.9002 12.8471 23.1996 12.897C23.4989 12.9469 23.7983 13.0051 24.0976 13.0716C24.6631 13.2046 24.9873 13.504 25.0705 13.9696C25.1537 14.4353 25.1786 15.2834 25.1453 16.5141C25.1121 16.88 25.0871 17.2625 25.0705 17.6616C25.0539 18.0607 25.0456 18.4931 25.0456 18.9588C25.0456 19.0586 25.0456 19.1667 25.0456 19.2831C25.0456 19.3995 25.0456 19.5076 25.0456 19.6074C25.0456 20.2393 25.0705 20.8713 25.1204 21.5033C25.1703 22.1352 25.4281 22.6009 25.8937 22.9002C25.927 22.9335 25.9769 22.9584 26.0434 22.9751C26.1099 22.9917 26.1764 23 26.243 23C26.4093 23 26.7668 22.8254 27.3156 22.4761C27.8644 22.1269 28.7708 20.8713 30.0347 18.7093C30.6001 17.7448 31.0741 16.7968 31.4566 15.8655C31.8391 14.9342 32.047 14.4353 32.0803 14.3688C32.0803 14.3022 32.1218 14.2191 32.205 14.1193C32.2881 14.0195 32.363 13.9364 32.4295 13.8698C32.496 13.8366 32.5709 13.8116 32.654 13.795C32.7372 13.7784 32.812 13.7701 32.8785 13.7701H38.9154C39.248 13.7701 39.5224 13.795 39.7386 13.8449C39.9548 13.8948 40.0795 13.9863 40.1128 14.1193C40.1793 14.3189 40.0795 14.8012 39.8134 15.5662C39.5474 16.3312 38.7158 17.645 37.3189 19.5076C37.086 19.8402 36.8699 20.1396 36.6703 20.4056C36.4707 20.6717 36.2712 20.9212 36.0716 21.154C34.8409 22.8171 34.2256 23.9147 34.2256 24.4469C34.2256 24.979 34.8908 25.8604 36.2213 27.0911Z" fill="#3E99FE"/>
</svg>
